<svg xml:space="preserve" style="enable-background:new 0 0 64 64;" viewBox="0 0 64 64" y="0px" x="0px" xmlns:xlink="http://www.w3.org/1999/xlink" xmlns="http://www.w3.org/2000/svg" id="图层_1" version="1.1">
<style type="text/css">
	.st0{fill:#1B2851;}
	.st1{fill:#E84356;}
</style>
<path d="M29.5,31.1c4,0,8,0,12.1,0c-0.9,2.2-1.6,4.1-2.4,6.1c-0.1,0.3-0.8,0.4-1.2,0.4c-4.7,0-10.3-0.2-12.6,3
	c-0.9,1.4-2.2,6.5-3.5,9.7c-0.3,0.8-0.7,1-1.5,1c-2.8-0.1-5.5,0-8.5,0c3.7-9.4,7.3-18.7,11-28.1c-1-0.7-2.2-1.5-3.5-2.5
	c0.4-1,0.7-2,1.2-2.9c0.1-0.3,0.5-0.5,0.8-0.5c10.3,0,20.5-0.1,30.8-0.1c0,0,0.1,0,0.2,0.1c-1.1,2.8-2.2,5.7-3.3,8.4
	c-0.1,0.3-0.8,0.5-1.2,0.5c-4.2,0-8.4,0.1-12.7,0C31.4,26.2,30.2,28,29.5,31.1z" class="st0"></path>
<path d="M31.8,17.6c-2.3,0.2-4.1,1.4-5.8,2.8c-1.1,0.9-2.1,2-3.3,3.2c-1.1-0.8-2.4-1.6-3.7-2.5c0.4-1,0.7-2.1,1.2-3
	c0.2-0.3,0.8-0.5,1.2-0.5c3,0,6,0,9,0c0.5,0,0.9-0.1,1.3-0.1C31.8,17.4,31.8,17.5,31.8,17.6z" class="st1"></path>
<path d="M-2.2,82.2" class="st0"></path>
</svg>
